<mxfile host="app.diagrams.net" modified="2022-09-29T21:07:14.655Z" agent="5.0 (Macintosh; Intel Mac OS X 10_15_7) AppleWebKit/537.36 (KHTML, like Gecko) Chrome/105.0.0.0 Safari/537.36" etag="qkWQXm3RViJJz_4oojSh" version="17.2.5" type="github">
  <diagram id="29PnmZSbWOXfbEpDBTFi" name="Auto Scaling">
    <mxGraphModel dx="946" dy="646" grid="1" gridSize="10" guides="1" tooltips="1" connect="1" arrows="1" fold="1" page="1" pageScale="1" pageWidth="827" pageHeight="1169" math="0" shadow="0">
      <root>
        <mxCell id="0" />
        <mxCell id="1" parent="0" />
        <mxCell id="LVjRe6TPIiUicwo2hUYb-3" value="" style="sketch=0;points=[[0,0,0],[0.25,0,0],[0.5,0,0],[0.75,0,0],[1,0,0],[0,1,0],[0.25,1,0],[0.5,1,0],[0.75,1,0],[1,1,0],[0,0.25,0],[0,0.5,0],[0,0.75,0],[1,0.25,0],[1,0.5,0],[1,0.75,0]];outlineConnect=0;fontColor=#232F3E;gradientColor=#F78E04;gradientDirection=north;fillColor=#D05C17;strokeColor=#ffffff;dashed=0;verticalLabelPosition=bottom;verticalAlign=top;align=center;html=1;fontSize=12;fontStyle=0;aspect=fixed;shape=mxgraph.aws4.resourceIcon;resIcon=mxgraph.aws4.ec2;" vertex="1" parent="1">
          <mxGeometry x="400" y="200" width="78" height="78" as="geometry" />
        </mxCell>
        <mxCell id="LVjRe6TPIiUicwo2hUYb-4" value="" style="sketch=0;points=[[0,0,0],[0.25,0,0],[0.5,0,0],[0.75,0,0],[1,0,0],[0,1,0],[0.25,1,0],[0.5,1,0],[0.75,1,0],[1,1,0],[0,0.25,0],[0,0.5,0],[0,0.75,0],[1,0.25,0],[1,0.5,0],[1,0.75,0]];outlineConnect=0;fontColor=#232F3E;gradientColor=#F78E04;gradientDirection=north;fillColor=#D05C17;strokeColor=#ffffff;dashed=0;verticalLabelPosition=bottom;verticalAlign=top;align=center;html=1;fontSize=12;fontStyle=0;aspect=fixed;shape=mxgraph.aws4.resourceIcon;resIcon=mxgraph.aws4.ec2;" vertex="1" parent="1">
          <mxGeometry x="500" y="200" width="78" height="78" as="geometry" />
        </mxCell>
        <mxCell id="LVjRe6TPIiUicwo2hUYb-5" value="" style="sketch=0;points=[[0,0,0],[0.25,0,0],[0.5,0,0],[0.75,0,0],[1,0,0],[0,1,0],[0.25,1,0],[0.5,1,0],[0.75,1,0],[1,1,0],[0,0.25,0],[0,0.5,0],[0,0.75,0],[1,0.25,0],[1,0.5,0],[1,0.75,0]];outlineConnect=0;fontColor=#232F3E;gradientColor=#F78E04;gradientDirection=north;fillColor=#D05C17;strokeColor=#ffffff;dashed=0;verticalLabelPosition=bottom;verticalAlign=top;align=center;html=1;fontSize=12;fontStyle=0;aspect=fixed;shape=mxgraph.aws4.resourceIcon;resIcon=mxgraph.aws4.ec2;" vertex="1" parent="1">
          <mxGeometry x="590" y="200" width="78" height="78" as="geometry" />
        </mxCell>
        <mxCell id="LVjRe6TPIiUicwo2hUYb-6" value="" style="sketch=0;points=[[0,0,0],[0.25,0,0],[0.5,0,0],[0.75,0,0],[1,0,0],[0,1,0],[0.25,1,0],[0.5,1,0],[0.75,1,0],[1,1,0],[0,0.25,0],[0,0.5,0],[0,0.75,0],[1,0.25,0],[1,0.5,0],[1,0.75,0]];outlineConnect=0;fontColor=#232F3E;gradientColor=#F78E04;gradientDirection=north;fillColor=#D05C17;strokeColor=#ffffff;dashed=0;verticalLabelPosition=bottom;verticalAlign=top;align=center;html=1;fontSize=12;fontStyle=0;aspect=fixed;shape=mxgraph.aws4.resourceIcon;resIcon=mxgraph.aws4.ec2;" vertex="1" parent="1">
          <mxGeometry x="700" y="200" width="78" height="78" as="geometry" />
        </mxCell>
        <mxCell id="LVjRe6TPIiUicwo2hUYb-30" value="" style="edgeStyle=orthogonalEdgeStyle;rounded=0;orthogonalLoop=1;jettySize=auto;html=1;fontColor=#7F00FF;entryX=0;entryY=0.5;entryDx=0;entryDy=0;entryPerimeter=0;" edge="1" parent="1" source="LVjRe6TPIiUicwo2hUYb-11" target="LVjRe6TPIiUicwo2hUYb-25">
          <mxGeometry relative="1" as="geometry">
            <mxPoint x="271.93000000000006" y="245" as="targetPoint" />
          </mxGeometry>
        </mxCell>
        <mxCell id="LVjRe6TPIiUicwo2hUYb-11" value="" style="sketch=0;outlineConnect=0;fontColor=#7F00FF;gradientColor=none;fillColor=#232F3D;strokeColor=none;dashed=0;verticalLabelPosition=bottom;verticalAlign=top;align=center;html=1;fontSize=12;fontStyle=0;aspect=fixed;pointerEvents=1;shape=mxgraph.aws4.office_building;" vertex="1" parent="1">
          <mxGeometry x="30" y="142" width="134.62" height="210" as="geometry" />
        </mxCell>
        <mxCell id="LVjRe6TPIiUicwo2hUYb-18" value="Auto Scaling group" style="points=[[0,0],[0.25,0],[0.5,0],[0.75,0],[1,0],[1,0.25],[1,0.5],[1,0.75],[1,1],[0.75,1],[0.5,1],[0.25,1],[0,1],[0,0.75],[0,0.5],[0,0.25]];outlineConnect=0;gradientColor=none;html=1;whiteSpace=wrap;fontSize=12;fontStyle=0;container=1;pointerEvents=0;collapsible=0;recursiveResize=0;shape=mxgraph.aws4.groupCenter;grIcon=mxgraph.aws4.group_auto_scaling_group;grStroke=1;strokeColor=#D86613;fillColor=none;verticalAlign=top;align=center;fontColor=#D86613;dashed=1;spacingTop=25;" vertex="1" parent="1">
          <mxGeometry x="390" y="140" width="400" height="370" as="geometry" />
        </mxCell>
        <mxCell id="LVjRe6TPIiUicwo2hUYb-25" value="" style="sketch=0;points=[[0,0,0],[0.25,0,0],[0.5,0,0],[0.75,0,0],[1,0,0],[0,1,0],[0.25,1,0],[0.5,1,0],[0.75,1,0],[1,1,0],[0,0.25,0],[0,0.5,0],[0,0.75,0],[1,0.25,0],[1,0.5,0],[1,0.75,0]];outlineConnect=0;fontColor=#232F3E;gradientColor=#945DF2;gradientDirection=north;fillColor=#5A30B5;strokeColor=#ffffff;dashed=0;verticalLabelPosition=bottom;verticalAlign=top;align=center;html=1;fontSize=12;fontStyle=0;aspect=fixed;shape=mxgraph.aws4.resourceIcon;resIcon=mxgraph.aws4.cloudfront;" vertex="1" parent="LVjRe6TPIiUicwo2hUYb-18">
          <mxGeometry x="-60" y="80" width="54" height="54" as="geometry" />
        </mxCell>
        <mxCell id="LVjRe6TPIiUicwo2hUYb-19" value="Auto Scaling group" style="points=[[0,0],[0.25,0],[0.5,0],[0.75,0],[1,0],[1,0.25],[1,0.5],[1,0.75],[1,1],[0.75,1],[0.5,1],[0.25,1],[0,1],[0,0.75],[0,0.5],[0,0.25]];outlineConnect=0;gradientColor=none;html=1;whiteSpace=wrap;fontSize=12;fontStyle=0;container=1;pointerEvents=0;collapsible=0;recursiveResize=0;shape=mxgraph.aws4.groupCenter;grIcon=mxgraph.aws4.group_auto_scaling_group;grStroke=1;strokeColor=#D86613;fillColor=none;verticalAlign=top;align=center;fontColor=#D86613;dashed=1;spacingTop=25;" vertex="1" parent="1">
          <mxGeometry x="391" y="344" width="429" height="186" as="geometry" />
        </mxCell>
        <mxCell id="LVjRe6TPIiUicwo2hUYb-20" value="" style="sketch=0;points=[[0,0,0],[0.25,0,0],[0.5,0,0],[0.75,0,0],[1,0,0],[0,1,0],[0.25,1,0],[0.5,1,0],[0.75,1,0],[1,1,0],[0,0.25,0],[0,0.5,0],[0,0.75,0],[1,0.25,0],[1,0.5,0],[1,0.75,0]];outlineConnect=0;fontColor=#232F3E;gradientColor=#F78E04;gradientDirection=north;fillColor=#D05C17;strokeColor=#ffffff;dashed=0;verticalLabelPosition=bottom;verticalAlign=top;align=center;html=1;fontSize=12;fontStyle=0;aspect=fixed;shape=mxgraph.aws4.resourceIcon;resIcon=mxgraph.aws4.ec2;" vertex="1" parent="LVjRe6TPIiUicwo2hUYb-19">
          <mxGeometry x="9" y="46" width="78" height="78" as="geometry" />
        </mxCell>
        <mxCell id="LVjRe6TPIiUicwo2hUYb-17" value="Security group" style="fillColor=none;strokeColor=#DD3522;verticalAlign=top;fontStyle=0;fontColor=#DD3522;dashed=1;spacing=2;" vertex="1" parent="LVjRe6TPIiUicwo2hUYb-19">
          <mxGeometry x="-21" y="-324" width="450" height="510" as="geometry" />
        </mxCell>
        <mxCell id="LVjRe6TPIiUicwo2hUYb-26" value="" style="sketch=0;points=[[0,0,0],[0.25,0,0],[0.5,0,0],[0.75,0,0],[1,0,0],[0,1,0],[0.25,1,0],[0.5,1,0],[0.75,1,0],[1,1,0],[0,0.25,0],[0,0.5,0],[0,0.75,0],[1,0.25,0],[1,0.5,0],[1,0.75,0]];outlineConnect=0;fontColor=#232F3E;gradientColor=#945DF2;gradientDirection=north;fillColor=#5A30B5;strokeColor=#ffffff;dashed=0;verticalLabelPosition=bottom;verticalAlign=top;align=center;html=1;fontSize=12;fontStyle=0;aspect=fixed;shape=mxgraph.aws4.resourceIcon;resIcon=mxgraph.aws4.elastic_load_balancing;" vertex="1" parent="LVjRe6TPIiUicwo2hUYb-19">
          <mxGeometry x="169" y="-294" width="58" height="58" as="geometry" />
        </mxCell>
        <mxCell id="LVjRe6TPIiUicwo2hUYb-22" value="" style="sketch=0;points=[[0,0,0],[0.25,0,0],[0.5,0,0],[0.75,0,0],[1,0,0],[0,1,0],[0.25,1,0],[0.5,1,0],[0.75,1,0],[1,1,0],[0,0.25,0],[0,0.5,0],[0,0.75,0],[1,0.25,0],[1,0.5,0],[1,0.75,0]];outlineConnect=0;fontColor=#232F3E;gradientColor=#F78E04;gradientDirection=north;fillColor=#D05C17;strokeColor=#ffffff;dashed=0;verticalLabelPosition=bottom;verticalAlign=top;align=center;html=1;fontSize=12;fontStyle=0;aspect=fixed;shape=mxgraph.aws4.resourceIcon;resIcon=mxgraph.aws4.ec2;" vertex="1" parent="1">
          <mxGeometry x="492" y="390" width="78" height="78" as="geometry" />
        </mxCell>
        <mxCell id="LVjRe6TPIiUicwo2hUYb-23" value="" style="sketch=0;points=[[0,0,0],[0.25,0,0],[0.5,0,0],[0.75,0,0],[1,0,0],[0,1,0],[0.25,1,0],[0.5,1,0],[0.75,1,0],[1,1,0],[0,0.25,0],[0,0.5,0],[0,0.75,0],[1,0.25,0],[1,0.5,0],[1,0.75,0]];outlineConnect=0;fontColor=#232F3E;gradientColor=#F78E04;gradientDirection=north;fillColor=#D05C17;strokeColor=#ffffff;dashed=0;verticalLabelPosition=bottom;verticalAlign=top;align=center;html=1;fontSize=12;fontStyle=0;aspect=fixed;shape=mxgraph.aws4.resourceIcon;resIcon=mxgraph.aws4.ec2;" vertex="1" parent="1">
          <mxGeometry x="580" y="390" width="78" height="78" as="geometry" />
        </mxCell>
        <mxCell id="LVjRe6TPIiUicwo2hUYb-24" value="" style="sketch=0;points=[[0,0,0],[0.25,0,0],[0.5,0,0],[0.75,0,0],[1,0,0],[0,1,0],[0.25,1,0],[0.5,1,0],[0.75,1,0],[1,1,0],[0,0.25,0],[0,0.5,0],[0,0.75,0],[1,0.25,0],[1,0.5,0],[1,0.75,0]];outlineConnect=0;fontColor=#232F3E;gradientColor=#F78E04;gradientDirection=north;fillColor=#D05C17;strokeColor=#ffffff;dashed=0;verticalLabelPosition=bottom;verticalAlign=top;align=center;html=1;fontSize=12;fontStyle=0;aspect=fixed;shape=mxgraph.aws4.resourceIcon;resIcon=mxgraph.aws4.ec2;" vertex="1" parent="1">
          <mxGeometry x="680" y="390" width="68" height="68" as="geometry" />
        </mxCell>
      </root>
    </mxGraphModel>
  </diagram>
</mxfile>
